<svg xmlns="http://www.w3.org/2000/svg" width="461.9" height="226" viewBox="0 0 461.9 226">
  <g id="Group_118" data-name="Group 118" transform="translate(-450 -156)">
    <g id="Group_102" data-name="Group 102" transform="translate(450 347)">
      <path id="Path_110" data-name="Path 110" d="M242,22l4.9-16h.1l4.9,16ZM249.7.8h-5.6L233,34.1h5.3l2.4-7.9h12.4l2.4,7.9h5.3Z" fill="#fff"/>
      <path id="Path_111" data-name="Path 111" d="M17.7,2.3s-.1.3-1.6,4.5C12,3.3,5,3.5,5,8.9c0,6.3,14.7,5.5,14.2,16.8C18.8,34.9,8.2,37,0,32.6c.7-1.6,1.5-3.1,2-4.4,6.2,3.9,11.5,2.1,12.4-1C16.8,18.7.1,21.3.1,9.3c0-5.1,5.5-13,17.6-7" fill="#fff"/>
      <path id="Path_112" data-name="Path 112" d="M34.7,34.1V.8H55.1V5.2H39.8v9.1H50.7v4.1H39.8V29.7H55.1v4.4Z" fill="#fff"/>
      <path id="Path_113" data-name="Path 113" d="M130.6,34.1V18.4H114V34.1h-5V.8h5V14.3h16.6V.8h5V34.1Z" fill="#fff"/>
      <path id="Path_114" data-name="Path 114" d="M167.1,30.3c-6.7,0-12.1-5.8-12.1-12.9s5.4-12.9,12.1-12.9,12.1,5.8,12.1,12.9c0,7.2-5.4,12.9-12.1,12.9m0-30.3A17.245,17.245,0,0,0,150,17.5a17.1,17.1,0,1,0,34.2,0A17.31,17.31,0,0,0,167.1,0" fill="#fff"/>
      <path id="Path_115" data-name="Path 115" d="M81.4,17.2H77.9V4.9h3c1.3,0,9.1-.4,9.3,5.7s-5.9,6.6-8.8,6.6M81.6.7H72.8V34h5.1V21.4s4.2,0,5.6-.1c4.6-.4,11.2-1.6,11.2-10.7C94.7.3,83.5.7,81.6.7" fill="#fff"/>
      <path id="Path_116" data-name="Path 116" d="M203.9,17.3V5h3c1.3,0,9.1-.4,9.3,5.7s-5.9,6.6-8.8,6.6h-3.5m20.2,16.9-9.5-13.8c3.2-1.2,6.1-3.8,6.1-9.7C220.7.4,209.5.9,207.6.9h-8.8V34.3h5.1V21.6s4.2,0,5.6-.1h0l8.4,12.8h6.2Z" fill="#fff"/>
      <g id="Group_102-2" data-name="Group 102">
        <path id="Path_117" data-name="Path 117" d="M279.5,32.1l.9-1.9a14.455,14.455,0,0,0,7.1,2.2c4,0,6.4-2.3,6.4-6.1,0-4.3-3.2-6.6-6.4-8.9-3.3-2.3-6.8-4.8-6.8-9.5S284,.1,289.4.1a14.072,14.072,0,0,1,5.8,1.3l-.9,2a11.055,11.055,0,0,0-4.9-1.2c-3.9,0-6.2,2.1-6.2,5.4,0,3.9,3,6,6.2,8.2,3.5,2.5,7.1,5.1,7.1,10.2,0,5-3.6,8.6-9.1,8.6A12.8,12.8,0,0,1,279.5,32.1Z" fill="#fff"/>
        <path id="Path_118" data-name="Path 118" d="M329.5,3H318.4V34.1H316V3H304.9V.7h24.6Z" fill="#fff"/>
        <path id="Path_119" data-name="Path 119" d="M354.7,23.3H339l-4.3,10.8h-2.4L345.6.7l2.5-.2,13.4,33.6H359Zm-.8-2.2-7-17.7-7.1,17.7Z" fill="#fff"/>
        <path id="Path_120" data-name="Path 120" d="M397.6.7V34.1h-3.1L374.9,3.5V34.1h-2.4V.7l3.3-.2,19.4,30.2V.7h2.4Z" fill="#fff"/>
        <path id="Path_121" data-name="Path 121" d="M435.9,17.1c0,11.2-6.2,17.3-17.9,17.3-1.4,0-4.8-.1-7.5-.3V.7c2.7-.2,6.1-.3,7.6-.3C429.7.4,435.9,6,435.9,17.1Zm-2.6.4c0-10.2-5.1-14.9-15.5-14.9-1.1,0-3,0-4.9.1V32.1c2,.1,3.8.1,4.9.1C428.1,32.3,433.3,27.7,433.3,17.5Z" fill="#fff"/>
        <path id="Path_122" data-name="Path 122" d="M444.9,32.1l.9-1.9a14.455,14.455,0,0,0,7.1,2.2c4,0,6.4-2.3,6.4-6.1,0-4.3-3.2-6.6-6.4-8.9-3.3-2.3-6.8-4.8-6.8-9.5S449.4.1,454.8.1a14.072,14.072,0,0,1,5.8,1.3l-.9,2a11.055,11.055,0,0,0-4.9-1.2c-3.9,0-6.2,2.1-6.2,5.4,0,3.9,3,6,6.2,8.2,3.5,2.5,7.1,5.1,7.1,10.2,0,5-3.6,8.6-9.1,8.6A13.2,13.2,0,0,1,444.9,32.1Z" fill="#fff"/>
      </g>
    </g>
    <g id="Group_105" data-name="Group 105" transform="translate(587.018 156)">
      <g id="Group_103" data-name="Group 103" transform="translate(11.502)">
        <path id="Path_123" data-name="Path 123" d="M172.3,348.2c8.338,6.941,15.914,13.079,21.671,18.073h0c5.756-4.994,13.29-11.132,21.671-18.073Z" transform="translate(-110.886 -200.822)" fill="#fff"/>
        <path id="Path_124" data-name="Path 124" d="M223.227,390.785h0l-.127-.085S223.142,390.7,223.227,390.785Z" transform="translate(-140.184 -225.334)"/>
        <path id="Path_125" data-name="Path 125" d="M223.4,390.669l.169-.169S223.569,390.542,223.4,390.669Z" transform="translate(-140.357 -225.219)"/>
        <path id="Path_126" data-name="Path 126" d="M67.663,0C52.214,0,37.1,6.349,27.2,18.369h82.789C107.492,15.576,94.074,0,67.663,0Z" transform="translate(-27.2)" fill="#fff"/>
      </g>
      <path id="Path_127" data-name="Path 127" d="M223.5,18.708h0M266.08,0c-27.639,0-41.013,17.057-42.537,18.708,0,0,74.832,77.964,75.043,77.71C309.336,83.254,317,69.964,317.886,57.9,320.637,20.613,293.93,0,266.08,0" transform="translate(-128.913 0)" fill="#d2232a"/>
      <g id="Group_104" data-name="Group 104" transform="translate(-0.018 18.75)">
        <path id="Path_128" data-name="Path 128" d="M111.306,101.687A82.788,82.788,0,0,0,103.814,87H2.021A60.746,60.746,0,0,0,.032,105.412H112.66C112.237,104.184,111.771,102.914,111.306,101.687Z" transform="translate(0.018 -68.927)" fill="#fff"/>
        <path id="Path_129" data-name="Path 129" d="M250.519,101.905c2.116,12.02,3.767,21.5,11.724,28.654,8.127,7.365,17.48,8.931,27.808,4.656a44.818,44.818,0,0,0,11.682-7.322c.889-1.058,1.354-1.735,1.354-1.735L223.6,44.3c2.328,2.54,4.444,5.037,6.349,7.576C245.017,70.542,248.022,87.768,250.519,101.905Z" transform="translate(-128.952 -44.3)" fill="#fff"/>
        <path id="Path_130" data-name="Path 130" d="M193.946,266.433a27.492,27.492,0,0,1-16.168-5.333H75.9c6.137,6.306,12.7,12.528,19.3,18.412h86.217c4.74-4.275,9.481-8.677,14.052-13.163C195,266.391,194.454,266.433,193.946,266.433Z" transform="translate(-43.767 -169.338)" fill="#fff"/>
        <path id="Path_131" data-name="Path 131" d="M124.036,177.344c-.212-1.1-.381-2.2-.593-3.344H10.9a101.043,101.043,0,0,0,11.428,18.412H127.3A137.8,137.8,0,0,1,124.036,177.344Z" transform="translate(-6.279 -119.104)" fill="#fff"/>
      </g>
    </g>
  </g>
</svg>
